<svg xmlns="http://www.w3.org/2000/svg" viewBox="0 0 512 640" x="0px" y="0px"><path d="M455.769,242.49121,431.98,232.97559a42.26408,42.26408,0,0,0-34.87842,1.55371l-18.11865-78.51368A25.82211,25.82211,0,0,0,328,161.82227V300.68652l-29.37256-29.373A24.97074,24.97074,0,0,0,256,288.9707a44.29764,44.29764,0,0,0,3.18311,16.52637L304,417.54V496h16V424H480v72h16V301.91406A63.69555,63.69555,0,0,0,455.769,242.49121ZM480,408H317.4165L274.03857,299.55566A28.38122,28.38122,0,0,1,272,288.9707a8.97038,8.97038,0,0,1,15.314-6.34277l43.0293,43.0293A8.00038,8.00038,0,0,0,344,320V161.82227a9.82235,9.82235,0,0,1,19.39307-2.209l20.812,90.18555a7.99954,7.99954,0,0,0,13.45166,3.8584,26.29112,26.29112,0,0,1,28.38086-5.82618l23.78906,9.51563A47.77162,47.77162,0,0,1,480,301.91406Z"/><path d="M472,16H40A24.0275,24.0275,0,0,0,16,40V344a24.0275,24.0275,0,0,0,24,24H264V352H40a8.00917,8.00917,0,0,1-8-8V235.314l13.65674-13.65673A8.00076,8.00076,0,0,0,48,216V168a8.00076,8.00076,0,0,0-2.34326-5.65723L32,148.686V40a8.00917,8.00917,0,0,1,8-8H472a8.00917,8.00917,0,0,1,8,8V240h16V40A24.0275,24.0275,0,0,0,472,16Z"/><rect x="48" y="48" width="16" height="24"/><rect x="48" y="88" width="16" height="24"/><rect x="48" y="312" width="16" height="24"/><path d="M264,176V126.94824l8,5.333V176a8.00008,8.00008,0,0,0,8,8h24a7.99967,7.99967,0,0,0,7.58936-5.46973l16-48-15.17872-5.06054L298.23389,168H288V130.42188l14.65625-21.98438a8,8,0,0,0-1.85645-10.83789L288.00024,88H352v32h16V80a8.00008,8.00008,0,0,0-8-8H184a8.00222,8.00222,0,0,0-4.7998,1.59961l-32,24a8,8,0,0,0-1.85645,10.83789l16,24a7.99966,7.99966,0,0,0,11.09375,2.21875L184,126.94824V176a8.00008,8.00008,0,0,0,8,8h64A8.00008,8.00008,0,0,0,264,176Zm-16-64v56H200V112a7.99956,7.99956,0,0,0-12.4375-6.65625l-17.34375,11.5625-7.36426-11.04687L186.6665,88h18.02A27.31257,27.31257,0,0,0,243.313,88H261.3335l23.812,17.85938L278.38538,116h-1.9635L260.4375,105.34375A7.99956,7.99956,0,0,0,248,112Z"/><path d="M114.34326,106.34277l-24,24a8.00034,8.00034,0,0,0,0,11.31446l24,24,11.31348-11.31446L107.31348,136l18.34326-18.34277Z"/><path d="M397.65674,165.65723l24-24a8.00034,8.00034,0,0,0,0-11.31446l-24-24-11.31348,11.31446L404.68652,136l-18.34326,18.34277Z"/><rect x="184" y="208" width="16" height="16"/><rect x="224" y="208" width="16" height="16"/><rect x="264" y="208" width="16" height="16"/><rect x="304" y="208" width="16" height="16"/><rect x="104" y="248" width="40" height="16"/><rect x="160" y="248" width="16" height="16"/><rect x="104" y="280" width="88" height="16"/><rect x="208" y="280" width="24" height="16"/></svg>