<svg xmlns="http://www.w3.org/2000/svg" viewBox="0 0 512 640" x="0px" y="0px"><path d="M48,496H464a32.036,32.036,0,0,0,32-32V48a32.036,32.036,0,0,0-32-32H48A32.036,32.036,0,0,0,16,48V464A32.036,32.036,0,0,0,48,496ZM32,464H64v16H48A16.01833,16.01833,0,0,1,32,464Zm128-48H80V400h80Zm0,16v16H80V432Zm0,32v16H80V464Zm0-80H80V368h80Zm-32-32H32V176h96ZM64,368v16H32V368Zm0,32v16H32V400Zm0,32v16H32V432Zm400,48H176V368H480v96A16.01833,16.01833,0,0,1,464,480ZM480,48V352H144V32H464A16.01833,16.01833,0,0,1,480,48ZM48,32h80V160H32V48A16.01833,16.01833,0,0,1,48,32Z"/><rect x="208" y="384" width="104" height="16"/><rect x="288" y="416" width="144" height="16"/><rect x="248" y="448" width="48" height="16"/><rect x="320" y="448" width="24" height="16"/><rect x="376" y="384" width="56" height="16"/><circle cx="56" cy="56" r="8"/><circle cx="80" cy="56" r="8"/><circle cx="104" cy="56" r="8"/><rect x="384" y="312" width="80" height="16"/><path d="M332.68652,328l5.65674,5.65674a7.99945,7.99945,0,0,0,11.31348,0l16-16A7.99877,7.99877,0,0,0,368,312V288a7.99977,7.99977,0,0,0-8-8H328a7.99977,7.99977,0,0,0-8,8v24H160v16ZM336,296h16v12.68652l-8,8-8-8Z"/><rect x="48" y="192" width="48" height="16"/><rect x="48" y="224" width="32" height="16"/><rect x="48" y="256" width="48" height="16"/><rect x="80" y="288" width="32" height="16"/><rect x="80" y="320" width="32" height="16"/><path d="M210.66455,253.96094a8.00168,8.00168,0,0,0,6.21875,1.99023l72-8a7.99845,7.99845,0,0,0,4.77344-2.29443L323.31348,216h19.24267l-6.44726,38.68457a7.99969,7.99969,0,0,0,4.31347,8.4707l16,8a8,8,0,0,0,10.93067-4.0039l20.14258-46.99951a33.75475,33.75475,0,0,0-25.47608-46.59229l-17.37036-2.895L355.314,160H392a7.99948,7.99948,0,0,0,4.7998-1.6001l32-24a7.9996,7.9996,0,0,0,2.35547-9.97754l-8-16a7.99877,7.99877,0,0,0-9.0957-4.18359l-29.49023,7.37256-25.2182-10.08716A23.96392,23.96392,0,0,0,360,96V68.94434a20.94358,20.94358,0,0,0-30.31055-18.73291l-13.26709,6.6333A7.99924,7.99924,0,0,0,312,64V88H280a8.00164,8.00164,0,0,0-2.97119.57227l-40,16A7.99975,7.99975,0,0,0,232,112v16a7.99977,7.99977,0,0,0,8,8h45.75391l-5.36005,21.43921L258.062,209.54639l-44.5918,14.86425A8.00011,8.00011,0,0,0,208,232v16A8.00089,8.00089,0,0,0,210.66455,253.96094ZM373.314,201.24072a17.73543,17.73543,0,0,1-.52441,12.60791l-16.80078,39.20166-3.12647-1.56347,7.02881-42.17139A8.00034,8.00034,0,0,0,352,200H311.07129a20.1611,20.1611,0,0,1-19.12647-26.53662l.96155-2.88464,32.12244,12.849a7.986,7.986,0,0,0,1.65729.45722l-.001.00616,32.7041,5.45069A17.7145,17.7145,0,0,1,373.314,201.24072ZM352,144a7.99877,7.99877,0,0,0-5.65674,2.34326l-20.27,20.26953-28.61865-11.44726,6.30664-25.2251A8.0001,8.0001,0,0,0,296,120h-8V104h25.3761a23.97964,23.97964,0,0,0,37.033,11.17987l26.82165,10.72864L381.75366,144Zm-8-48a8,8,0,0,1-16,0V88h16Zm69.85889,29.606-17.01984,12.76489-3.13751-12.55,18.01282-4.50348ZM336.8457,64.522A4.94339,4.94339,0,0,1,344,68.94434V72H328V68.94434ZM248,117.4165l24-9.60022V120H248ZM224,237.76611l42.52979-14.17675a7.99955,7.99955,0,0,0,4.82324-4.438l8.81164-20.56055c.26654.43829.53235.877.81873,1.30664a36.07631,36.07631,0,0,0,20.894,14.91168l-17.54974,17.54975L224,239.062Z"/></svg>