<svg xmlns="http://www.w3.org/2000/svg" viewBox="0 0 512 640" x="0px" y="0px"><path d="M488,16H24a8.00039,8.00039,0,0,0-8,8V296a8.00039,8.00039,0,0,0,8,8H208v48H176a8.00022,8.00022,0,0,0-7.15527,4.42188l-16,32A7.99951,7.99951,0,0,0,160,400H352a7.99951,7.99951,0,0,0,7.15527-11.57812l-16-32A8.00022,8.00022,0,0,0,336,352H304V304H488a8.00039,8.00039,0,0,0,8-8V24A8.00039,8.00039,0,0,0,488,16ZM339.05566,384H172.94434l8-16H331.05566ZM288,352H224V304h24v16a8,8,0,0,0,16,0V304h24Zm192-64H32V32H480Z"/><path d="M72,272H344a8.00039,8.00039,0,0,0,8-8V224H336v32H80V112H256V96H80V72a8.00917,8.00917,0,0,1,8-8H328a8.00917,8.00917,0,0,1,8,8V96h16V72a24.0275,24.0275,0,0,0-24-24H88A24.0275,24.0275,0,0,0,64,72V264A8.00039,8.00039,0,0,0,72,272Z"/><circle cx="96" cy="80" r="8"/><circle cx="120" cy="80" r="8"/><circle cx="144" cy="80" r="8"/><circle cx="304" cy="144" r="8"/><circle cx="328" cy="144" r="8"/><circle cx="352" cy="144" r="8"/><path d="M272,136v48a24.0275,24.0275,0,0,0,24,24H424a24.0275,24.0275,0,0,0,24-24V136a24.0275,24.0275,0,0,0-24-24H296A24.0275,24.0275,0,0,0,272,136Zm160,0v48a8.00917,8.00917,0,0,1-8,8H296a8.00917,8.00917,0,0,1-8-8V136a8.00917,8.00917,0,0,1,8-8H424A8.00917,8.00917,0,0,1,432,136Z"/><rect x="96" y="128" width="16" height="16"/><rect x="136" y="128" width="48" height="16"/><rect x="200" y="128" width="24" height="16"/><rect x="96" y="160" width="16" height="16"/><rect x="136" y="160" width="32" height="16"/><rect x="184" y="160" width="56" height="16"/><rect x="96" y="192" width="16" height="16"/><rect x="136" y="192" width="64" height="16"/><rect x="216" y="192" width="24" height="16"/><rect x="96" y="224" width="16" height="16"/><rect x="136" y="224" width="80" height="16"/><path d="M384,488V456a8.00039,8.00039,0,0,0-8-8H364.94434l-13.78907-27.57812A7.99912,7.99912,0,0,0,344,416H56a7.99912,7.99912,0,0,0-7.15527,4.42188L35.05566,448H24a8.00039,8.00039,0,0,0-8,8v32a8.00039,8.00039,0,0,0,8,8H376A8.00039,8.00039,0,0,0,384,488Zm-36.94434-40H320V432h19.05566ZM96,448V432h24v16Zm40-16H264v16H136Zm144,0h24v16H280ZM60.94434,432H80v16H52.94434ZM368,480H32V464H368Z"/><path d="M487.84473,446.43066A8,8,0,0,0,480,440H456V424H440v16H416a8,8,0,0,0-7.84473,6.43066l-8,40A8.00012,8.00012,0,0,0,408,496h80a8.00012,8.00012,0,0,0,7.84473-9.56934ZM417.75879,480l4.7998-24h50.88282l4.7998,24Z"/></svg>