<svg xmlns="http://www.w3.org/2000/svg" viewBox="0 0 512 640" x="0px" y="0px"><path d="M24,184V472a24.02718,24.02718,0,0,0,24,24H224a24.02718,24.02718,0,0,0,24-24V184a24.02718,24.02718,0,0,0-24-24H48A24.02718,24.02718,0,0,0,24,184Zm208,0V472a8.00917,8.00917,0,0,1-8,8H48a8.00917,8.00917,0,0,1-8-8V184a8.00917,8.00917,0,0,1,8-8H84.686l13.65673,13.65674A8.00076,8.00076,0,0,0,104,192h64a8.00076,8.00076,0,0,0,5.65723-2.34326L187.314,176H224A8.00917,8.00917,0,0,1,232,184Z"/><rect x="64" y="440" width="24" height="16"/><rect x="184" y="440" width="24" height="16"/><rect x="320" y="448" width="24" height="16"/><path d="M360,88H96a24.02718,24.02718,0,0,0-24,24v32H88V112a8.00917,8.00917,0,0,1,8-8H360a8.00917,8.00917,0,0,1,8,8V472a8.00917,8.00917,0,0,1-8,8H264v16h96a24.02718,24.02718,0,0,0,24-24V112A24.02718,24.02718,0,0,0,360,88Z"/><path d="M472,16H160a24.0275,24.0275,0,0,0-24,24V72h16V40a8.00917,8.00917,0,0,1,8-8H472a8.00917,8.00917,0,0,1,8,8V472a8.00917,8.00917,0,0,1-8,8H400v16h72a24.0275,24.0275,0,0,0,24-24V40A24.0275,24.0275,0,0,0,472,16Z"/><path d="M464,72a24,24,0,1,0-24,24A24.02718,24.02718,0,0,0,464,72Zm-24,8a8,8,0,1,1,8-8A8.00917,8.00917,0,0,1,440,80Z"/><circle cx="440" cy="120" r="8"/></svg>